<?xml version="1.0" encoding="UTF-8" standalone="no"?>
<!-- Creator: CorelDRAW X8 -->

<svg
   xmlns:dc="http://purl.org/dc/elements/1.1/"
   xmlns:cc="http://creativecommons.org/ns#"
   xmlns:rdf="http://www.w3.org/1999/02/22-rdf-syntax-ns#"
   xmlns:svg="http://www.w3.org/2000/svg"
   xmlns="http://www.w3.org/2000/svg"
   xmlns:xlink="http://www.w3.org/1999/xlink"
   xmlns:sodipodi="http://sodipodi.sourceforge.net/DTD/sodipodi-0.dtd"
   xmlns:inkscape="http://www.inkscape.org/namespaces/inkscape"
   xml:space="preserve"
   width="297mm"
   height="210mm"
   version="1.1"
   style="clip-rule:evenodd;fill-rule:evenodd;image-rendering:optimizeQuality;shape-rendering:geometricPrecision;text-rendering:geometricPrecision"
   viewBox="0 0 21475.213 15178.116"
   id="svg35"
   sodipodi:docname="icono.svg"
   inkscape:version="0.92.4 (5da689c313, 2019-01-14)"><metadata
   id="metadata39"><rdf:RDF><cc:Work
       rdf:about=""><dc:format>image/svg+xml</dc:format><dc:type
         rdf:resource="http://purl.org/dc/dcmitype/StillImage" /><dc:title></dc:title></cc:Work></rdf:RDF></metadata><sodipodi:namedview
   pagecolor="#ffffff"
   bordercolor="#666666"
   borderopacity="1"
   objecttolerance="10"
   gridtolerance="10"
   guidetolerance="10"
   inkscape:pageopacity="0"
   inkscape:pageshadow="2"
   inkscape:window-width="1366"
   inkscape:window-height="704"
   id="namedview37"
   showgrid="false"
   inkscape:zoom="0.74513184"
   inkscape:cx="546.43091"
   inkscape:cy="417.69054"
   inkscape:window-x="0"
   inkscape:window-y="27"
   inkscape:window-maximized="1"
   inkscape:current-layer="svg35"
   inkscape:snap-to-guides="true" />
 <defs
   id="defs13">
  <style
   type="text/css"
   id="style2">
   <![CDATA[
    .fil0 {fill:none}
    .fil1 {fill:#5CA47A}
    .fil2 {fill:#373435;fill-rule:nonzero}
   ]]>
  </style>
    <clipPath
   id="id0">
     <path
   d="M 0,0 H 3833 V 1473 H 0 Z"
   id="path4"
   inkscape:connector-curvature="0" />
    </clipPath>
     <clipPath
   id="id1">
      <path
   d="M 0,0 H 3833 V 1473 H 0 Z"
   id="path7"
   inkscape:connector-curvature="0" />
     </clipPath>
     <clipPath
   id="id2">
      <path
   d="M 0,0 H 3833 V 1473 H 0 Z"
   id="path10"
   inkscape:connector-curvature="0" />
     </clipPath>
 
  
  
 
   
   
   
   
   
  <filter
   style="color-interpolation-filters:sRGB"
   inkscape:label="Drop Shadow"
   id="filter360"><feFlood
     flood-opacity="0.498039"
     flood-color="rgb(0,0,0)"
     result="flood"
     id="feFlood350" /><feComposite
     in="flood"
     in2="SourceGraphic"
     operator="in"
     result="composite1"
     id="feComposite352" /><feGaussianBlur
     in="composite1"
     stdDeviation="20"
     result="blur"
     id="feGaussianBlur354" /><feOffset
     dx="50"
     dy="50"
     result="offset"
     id="feOffset356" /><feComposite
     in="SourceGraphic"
     in2="offset"
     operator="over"
     result="composite2"
     id="feComposite358" /></filter><clipPath
   clipPathUnits="userSpaceOnUse"
   id="clipPath4070"><use
     x="0"
     y="0"
     xlink:href="#g4066"
     id="use4072"
     width="100%"
     height="100%" /></clipPath></defs>
 
<g
   id="g33"
   transform="translate(-77.024992,-1874.2748)"
   inkscape:export-xdpi="96"
   inkscape:export-ydpi="96"><g
     transform="translate(-131.82275,13822.417)"
     id="g16">
   </g><polygon
     transform="matrix(5.891844,0,0,5.891844,-633.07495,3796.7208)"
     style="fill:none"
     id="polygon27"
     points="0,0 3833,0 3833,1473 0,1473 "
     class="fil0" /><path
     transform="matrix(5.891844,0,0,5.891844,-274.60765,-76447.914)"
     inkscape:export-ydpi="96"
     inkscape:export-xdpi="96"
     style="fill:#5ca47a;filter:url(#filter360)"
     inkscape:connector-curvature="0"
     id="path29"
     d="m 98.848802,15026.613 c 1151.000098,-949 3070.000098,-1970 3492.000098,-34 -552,-1317 -2789.0001,-268 -3492.000098,34 z"
     class="fil1" /><g
     inkscape:export-ydpi="96"
     inkscape:export-xdpi="96"
     transform="matrix(5.891844,0,0,5.891844,-890.46863,8010.5964)"
     clip-path="url(#clipPath4070)"
     id="g4068"><g
       id="g4066"
       inkscape:label="Clip"><path
         class="fil2"
         d="m 2067.9445,641.70171 h -327 V 315.70175 h 327 z m -4,-316.99996 v -6 l -2,3 c 1,1 1,2 2,3 z m -5,-6 h -1 c 0,0 0,0 1,0 z m 5,18 c 0,-5 -2,-9 -5,-13 l -24,25 c 3,4 7,5 11,5 5,0 9,-1 13,-5 3,-3 5,-8 5,-12 z m -8,-15 c -3,-2 -6,-3 -9,-3 -5,0 -9,2 -13,5 -3,4 -5,8 -5,13 0,3 1,6 3,9 z m -21,-3 h -97 c 30,7 57,21 79,42 l 12,-12 c -2,-4 -3,-8 -3,-12 0,-8 3,-14 9,-18 z m 29,126.00006 v -97.00006 c -4,7 -10,10 -18,10 -5,0 -10,-2 -14,-6 l -12,12 c 23,23 37,50.00006 44,81.00006 z m -49,-81.00006 c -29,-28 -64,-43 -104,-45 l 34,116.00006 z m 49,115.00006 c 0,-44 -16,-81.0001 -47,-112.00006 l -71,72.00006 32,111.9999 39,40 c 31,-31 47,-68 47,-111.9999 z m -193,-160.00006 h -97 c 6,4 9,10 9,18 0,4 -1,8 -3,12 l 11,12 c 23,-21 49,-35 80,-42 z m 32,0 c -42,1 -78,15 -109,45 l 72,74.00006 z m 16,142.00006 -21,-72.00006 -18,62.00006 24,25 z m 145,176.9999 v -124.9999 c -7,30.9999 -21,57.9999 -44,80.9999 l 4,4 c 6,2 10,6 13,13 z m -133,-134.9999 -11,-38 -13,14 z m -151,-166.00006 c 0,-5 -2,-9 -5,-13 -4,-3 -8,-5 -13,-5 -3,0 -6,1 -9,3 l 24,24 c 2,-3 3,-6 3,-9 z m -29,-18 h -1 z m -4,3 -2,-3 v 6 c 0,-1 1,-2 2,-3 z m 27,27 -24,-25 c -3,4 -5,8 -5,13 0,4 2,9 5,12 3,4 8,5 12,5 5,0 9,-1 12,-5 z m 241,244.99996 -34,-35 14,51 c 2,-1 2,-1 3,-2 3,-6 8,-9 14,-11 0,-1 1,-2 3,-3 z m 44,44 -21,-21 v 1 c 0,5 -2,10 -6,14 -4,4 -9,6 -15,6 v 0 0 z m -124,-119.9999 -2,-7 -29,-29 -35,36 z m 99,99.9999 c 0,-2 0,-4 0,-5 l -12,-13 c -3,0 -6,0 -9,0 -3,3 -6,5 -9,8 -3,3 -5,6 -5,10 0,11 6,17 18,17 5,0 9,-2 12,-5 4,-3 5,-8 5,-12 z m -132,-138.9999 -23,-23 -19,62 h 3 z m -113,-115.00006 -12,-12 c -4,4 -9,6 -15,6 -7,0 -13,-3 -17,-10 v 97.00006 c 6,-31 21,-58.00006 44,-81.00006 z m 76,78.00006 -74,-75.00006 c -31,30.99996 -46,68.00006 -46,112.00006 0,43.9999 15,80.9999 46,111.9999 l 41,-41 z m 75,157.9999 c -5,0 -10,2 -13,5 -3,4 -5,8 -5,13 0,4 2,8 5,11 3,4 7,6 11,6 3,0 5,-1 8,-2 7,-3 11,-8 11,-15 0,-12 -6,-18 -17,-18 z m 14,2 -14,-67 h -85 l -17,67 c 4,-4 8,-6 14,-6 6,0 10,2 15,6 4,5 6,10 6,16 0,6 -3,11 -8,16 13,3 26,4 39,4 9,0 18,0 27,-2 -8,-3 -12,-10 -12,-18 0,-6 2,-11 6,-16 4,-4 9,-6 15,-6 5,0 10,2 14,6 z m -85,16 c 0,-5 -1,-9 -5,-13 -3,-3 -7,-5 -12,-5 -5,0 -9,2 -13,5 -3,4 -5,8 -5,13 0,1 1,3 1,4 9,5 17,8 26,10 5,-3 8,-8 8,-14 z m -40,-60 -35,36 c 1,1 3,2 3,3 6,2 11,5 14,11 1,1 1,1 2,2 z m 42,80 c -3,0 -6,-1 -10,-2 -3,2 -6,2 -9,2 v 0 0 z m -16,-3 c -6,-2 -12,-5 -17,-7 3,5 8,7 14,7 1,0 2,0 3,0 z m -66,-41 c -23,-23 -38,-50 -44,-80.9999 v 124.9999 l 27,-27 c 2,-7 7,-11 13,-13 z m 21,24 c 0,-3 -1,-5 -2,-7 -4,-4 -8,-7 -13,-11 -2,0 -5,0 -8,0 l -12,13 c 0,2 0,3 0,5 0,4 1,8 5,12 3,3 7,5 12,5 5,0 9,-2 12,-5 4,-3 6,-8 6,-12 z m -19,20 c -5,0 -10,-2 -14,-6 -4,-4 -6,-9 -6,-15 l -21,21 z m 619,4 h -326 V 315.70175 h 326 v 163.00006 0 0 z m -3,-316.99996 v -6 l -3,3 c 1,1 2,2 3,3 z m -6,-6 z m 6,18 v 0 c 0,-5 -2,-9 -5,-13 l -25,25 c 4,4 8,5 12,5 5,0 9,-1 13,-5 3,-3 5,-8 5,-12 z m -8,-15 c -3,-2 -6,-3 -10,-3 -5,0 -9,2 -12,5 -4,4 -5,8 -5,13 0,3 1,6 3,9 z m -21,-3 h -97 c 30,7 57,21 79,42 l 12,-12 c -2,-4 -4,-8 -4,-12 0,-8 4,-14 10,-18 z m 29,126.00006 v -98.00006 c -4,7 -10,11 -18,11 -5,0 -10,-2 -14,-6 l -12,12 c 23,23 37,50.00006 44,81.00006 z m -49,-81.00006 c -30,-29 -65,-43 -105,-45 38,9 57,36 57,80.99996 0,3 0,7 0,12.0001 z m 49,115.00006 v 0 c 0,-44 -16,-81.0001 -47,-112.00006 l -51,52.00006 c -5,33 -23,55 -54,64 l 1,2 77,78.9999 c 7,-4 14,-6 21,-6 10,0 19,3 26,9 18,-26 27,-55.9999 27,-87.9999 z m -144,-107.00006 c 0,-11 -4,-20 -11,-27 -7,-7 -16,-11 -27,-11 -10,0 -19,3 -26,8 v 58.99996 c 8,6 16,9 25,9 11,0 20,-3 28,-11 7,-6.99996 11,-15.99996 11,-26.99996 z m 10,30.99996 c 0,-13.99996 -3,-25.99996 -7,-37.99996 0,2 0,4 0,7 0,11 -4,20.99996 -12,29.99996 -8,8 -18,12.0001 -30,12.0001 -9,0 -17,-3 -25,-8.0001 v 21.0001 l 39,40 c 23,-10 35,-31 35,-64.0001 z m 134,235 v -124.9999 c -5,19.9999 -13,38.9999 -25,56.9999 7,7 11,16 11,26 0,8 -2,15 -7,22 z m -243,-299.99996 c -1,-10 -7,-15 -17,-15 -5,0 -9,1 -12,5 -4,3 -5,7 -5,12 0,8 3,13 10,16 8,-7 16,-13 24,-18 z m 0,4 c -7,5 -14,10 -20,15 1,1 2,1 3,1 11,0 16,-6 17,-16 z m 225,253.99996 c 0,-9 -3,-16 -9,-23 -5,7 -11,14 -17,21 l 21,21 c 3,-6 5,-12 5,-19 z m -11,-25 c -7,-7 -15,-10 -24,-10 -6,0 -12,2 -18,6 l 24,24 c 7,-6 13,-13 18,-20 z m -231,-251.99996 v 0 h -54 l 41,42 c 2,-1 2,-2 3,-2 -7,-4 -11,-10 -11,-19 0,-6 2,-11 6,-15 5,-4 10,-6 15,-6 z m 18,73 v -40 c -5,6 -10,9 -18,9 -2,0 -5,0 -7,-1 l -3,4 z m 70,77.00006 -36,-36 v 41 c 14,0 26,-2 36,-5 z m 166,168.9999 -17,-17 c -8,9 -18,14 -30,14 v 0 3 z m -71,-72 -68,-69.9999 40,80.9999 c 3,6 8,15 15,27 -1,-2 -1,-5 -1,-8 0,-12 5,-22 14,-30 z m 28,28 -25,-25 c -9,7 -14,16 -14,27 0,9 3,16 8,21 11,-6 21,-14 31,-23 z m 23,24 -21,-22 c -9,10 -19,17 -30,24 8,8 17,11 24,11 12,0 21,-4 27,-13 z m -250,-253.99996 -43,-45 v 126.00006 c 6,-31 21,-58.00006 43,-81.00006 z m 96,133.00006 -4,-8 c -9,1 -17,1 -24,0 v 35.9999 z m 67,133.9999 -66,-130.9999 -29,29.9999 1,76 c 4,-7 10,-10 17,-10 6,0 11,2 15,6 4,5 6,10 6,16 0,9 -4,16 -13,19 8,1 15,1 22,1 16,0 32,-2 47,-7 z m 3,7 -2,-3 c -4,1 -9,3 -14,3 z m -132,-78 v -162 l -31,-30.99996 c -31,30.99996 -46,68.00006 -46,112.00006 0,43.9999 15,80.9999 46,111.9999 z m 70,58 c 0,-5 -2,-9 -5,-13 -4,-3 -8,-5 -13,-5 -4,0 -9,2 -12,5 -3,4 -5,8 -5,13 0,4 2,8 5,12 4,3 8,5 12,5 5,0 9,-2 13,-5 3,-4 5,-8 5,-12 z m -70,-12 v -41 l -28,29 c 0,1 2,2 3,4 2,-1 5,-2 7,-2 8,0 13,3 18,10 z m -1,10 c -1,-11 -6,-16 -17,-16 -1,0 -2,0 -3,0 6,6 13,11 20,16 z m -33,-22 c -22,-23 -37,-50 -43,-80.9999 v 124.9999 z m 33,26 c -8,-6 -16,-12 -24,-18 -7,3 -10,8 -10,16 0,4 1,8 5,12 3,3 7,5 12,5 4,0 8,-1 11,-5 4,-3 6,-7 6,-10 z m -17,18 c -6,0 -11,-2 -15,-6 -4,-4 -6,-9 -6,-14 0,-9 4,-15 11,-19 -1,0 -1,-1 -3,-3 l -41,42 z m 614,4 h -149 c -1,0 -2,0 -3,0 -2,0 -3,0 -3,0 -1,0 -2,0 -4,0 -1,0 -3,0 -3,0 h -164 V 315.70175 h 162 1 v 0 h 12 1 150 v 163.00006 0 0 z m -4,-316.99996 v -6 l -3,3 c 1,1 2,2 3,3 z m -5,-6 h -1 c 0,0 1,0 1,0 z m 5,18 c 0,-5 -1,-9 -5,-13 l -24,25 c 3,4 7,5 12,5 5,0 9,-1 12,-5 4,-3 5,-8 5,-12 z m -8,-15 c -3,-2 -6,-3 -9,-3 v 0 c -5,0 -9,2 -13,5 -3,4 -5,8 -5,13 0,3 1,6 3,9 z m -21,-3 h -47 l 2,21 c 10,6 19,13 27,21 l 13,-12 c -3,-4 -4,-8 -4,-12 0,-8 3,-14 9,-18 z m -55,2 c 0,0 0,-1 0,-2 h -5 c 2,0 4,1 5,2 z m 0,7 c 0,-4 -2,-5 -5,-5 -4,0 -5,1 -5,5 0,0 0,1 0,1 2,1 4,2 7,3 2,0 3,-2 3,-4 z m 84,117.00006 v -97.00006 c -4,7 -10,10 -17,10 -6,0 -11,-2 -15,-6 l -12,12 c 23,23 38,50.00006 44,81.00006 z m -49,-81.00006 c -8,-8 -16,-14 -25,-20 l 3,42 z m -40,-45 h -33 c 2,1 4,2 6,3 6,1 12,3 18,5 0,-5 3,-8 9,-8 z m 9,75.99996 c 0,-1 0,-2 0,-2.99996 0,0 0,0 0,0.99996 0,0 0,0 0,1 0,1 0,1 0,2 z m -5,11 -44,45.0001 c 24,-6 38,-21 44,-45.0001 z m 1,-13 c 0,-15.99996 -6,-29.99996 -18,-41.99996 -12,-12 -26,-18 -42,-18 -16,0 -30,6 -42,18 -11,11 -17,25 -17,41.99996 0,16 6,30.0001 17,42.0001 12,12 26,18 42,18 3,0 6,-1 8,-1 l 52,-52.0001 c 0,-3 0,-5 0,-7 z m 84,86.0001 v 0 c 0,-44 -15,-82.0001 -46,-113.00006 l -24,25 2,31.00006 h -5 c -1,-9 -3,-16.0001 -5,-23.0001 l -3,3 c -2,13.0001 -8,25.0001 -18,35.0001 -9,10 -21,16 -35,18 l -23,24 16,15 c 17,1 33,7 45,20 13,11.9999 19,27.9999 19,44.9999 v 1 l 5,5 c 1,-2 3,-4 4,-8 l 5,5 c -1,2 -2,5 -3,9 l 20,20 c 31,-31 46,-69 46,-111.9999 z m -173,-159.00006 c -37,3 -70,18 -97,44 l 30,29.99996 c 16,-39.99996 38,-64.99996 67,-73.99996 z m -20,-1 h -97 c 6,4 10,10 10,18 0,4 -2,8 -5,12 l 13,12 c 22,-21 49,-35 79,-42 z m 193,289.99996 v -96.9999 c -6,31.9999 -21,58.9999 -44,81.9999 l 12,12 c 4,-4 9,-6 15,-6 7,0 13,3 17,9 z m -140,-152.9999 c 0,0 -1,0 -1,0 -1,0 -2,0 -3,0 -17,0 -32,-6 -44,-19 -12,-12 -19,-27.0001 -19,-44.0001 0,-1.99996 0,-3.99996 0,-5.99996 -3,9.99996 -6,20.99996 -8,33.00006 l 56,56 z m -144,-119.00006 c 0,-5 -1,-9 -5,-13 -4,-3 -8,-5 -12,-5 h -1 c -3,0 -6,1 -9,3 l 24,24 c 2,-3 3,-6 3,-9 z m -29,-18 z m 313,301.99996 c 0,-5 -1,-9 -5,-13 -3,-3 -7,-5 -12,-5 -5,0 -9,2 -12,5 l 24,25 c 4,-3 5,-8 5,-12 z m -80,-65 c -1,-15 -7,-28 -18,-39.9999 -11,-11 -24,-17 -40,-18 z m 80,82 v -6 c 0,2 -1,3 -3,4 z m -316,-315.99996 -3,-3 v 6 c 1,-1 2,-2 3,-3 z m 27,27 -25,-25 c -3,4 -5,8 -5,13 0,4 2,9 5,12 4,4 8,5 13,5 4,0 8,-1 12,-5 z m 284,288.99996 v 0 c 0,0 -1,0 -1,0 z m -3,-2 -24,-25 c -2,3 -3,6 -3,10 0,5 2,9 5,12 4,4 8,5 13,5 3,0 6,-1 9,-2 z m -66,-67 -3,-4 c -1,6 -2,11 -4,17 2,-3 4,-8 7,-13 z m -88,-89.9999 -54,-54 c -2,18 -4,38 -4,59 0,17 2,34 4,49.9999 z m 113,114.9999 -19,-20 c -12,28 -27,46 -44,57 24,-7 45,-20 63,-37 z m -226,-229.99996 -12,-12 c -4,4 -9,6 -14,6 -8,0 -14,-3 -18,-10 v 97.00006 c 7,-31 21,-58.00006 44,-81.00006 z m 246,273.99996 c -6,-4 -9,-10 -9,-17 0,-5 1,-9 4,-12 l -13,-13 c -22,22 -49,36 -79,42 z m -51,-76 -63,-63.9999 c -17,0 -31,6 -43,18 -11,11.9999 -17,26.9999 -17,42.9999 0,17 6,32 18,44 12,12 26,18 43,18 17,0 31,-6 43,-17 12,-12 18,-26 19,-42 z m -67,-66.9999 -12,-13 -56,55.9999 c 2,12 5,23 9,32 0,-3 -1,-7 -1,-11 0,-17 6,-31 18,-43.9999 12,-12 26,-19 42,-20 z m -94,-97.0001 -32,-31.99996 c -30,30.99996 -46,69.00006 -46,113.00006 0,42.9999 16,80.9999 46,111.9999 l 29,-29 c -8,-25 -12,-50.9999 -12,-77.9999 0,-30 5,-58 15,-86.0001 z m 59,239 c -27,-11 -47,-34 -60,-71 l -28,28 c 25,24 54,38 88,43 z m -93,-43 c -23,-23 -37,-50 -44,-81.9999 v 96.9999 c 4,-6 10,-9 18,-9 5,0 10,2 14,6 z m 82,44 c -30,-6 -57,-20 -79,-42 l -13,13 c 3,3 5,7 5,12 0,7 -4,13 -10,17 z m -91,-17 c 0,-4 -1,-7 -3,-10 l -24,25 c 3,1 6,2 10,2 4,0 8,-1 12,-5 4,-3 5,-7 5,-12 z m -5,-13 c -4,-3 -8,-5 -12,-5 -5,0 -9,2 -13,5 -3,4 -5,8 -5,13 0,4 2,9 5,12 z m -24,30 z m -3,-2 c -1,-1 -2,-2 -3,-4 v 6 z m 670,6 h -21 v 0 h -306 V 315.70175 h 164 v 0 0 h 163 v 163.00006 0 0 z m -4,-316.99996 v -6 l -2,3 c 0,1 1,2 2,3 z m -5,-6 h -1 c 0,0 0,0 0,0 z m 5,18 v -1 c 0,-4 -2,-8 -5,-12 l -25,25 c 4,4 8,5 13,5 4,0 9,-1 12,-5 3,-3 5,-7 5,-12 z m -8,-15 c -3,-2 -6,-3 -9,-3 -5,0 -10,2 -13,5 -3,4 -5,8 -5,13 0,3 1,6 3,9 z m -21,-3 h -97 c 30,7 57,21 80,42 l 11,-12 c -2,-4 -3,-8 -3,-12 0,-8 3,-14 9,-18 z m 29,126.00006 v -97.00006 c -4,7 -10,10 -17,10 -6,0 -11,-2 -15,-6 l -12,12 c 23,23 38,50.00006 44,81.00006 z m -49,-81.00006 c -22,-21 -47,-35 -76,-41 22,11 40,32 53,64 z m 49,115.00006 v 0 c 0,-44 -15,-81.0001 -46,-112.00006 l -25,24 c 11,28.00006 16,57.00006 16,86.00006 0,31 -5,60.9999 -16,88.9999 l 25,25 c 31,-31 46,-68 46,-111.9999 z m -105,-92.00006 c 0,-3 0,-7 -1,-10 -12,-29 -30,-44 -53,-44 -24,0 -42,14 -54,43 0,4 -1,8 -1,11 0,14.99996 6,28.00006 16,39.00006 11,11 24,16 39,16 14,0 27,-5 38,-16 10,-11 16,-24.0001 16,-39.00006 z m -88,-68 h -97 c 6,4 9,10 9,18 0,4 -1,8 -4,12 l 12,12 c 23,-21 49,-35 80,-42 z m 193,289.99996 v -95.9999 c -6,30.9999 -21,57.9999 -44,80.9999 l 12,12 c 4,-4 9,-6 15,-6 7,0 13,3 17,9 z m -190,-286.99996 c -31,6 -58,20 -80,42 l 23,23 c 14,-33 33,-55 57,-65 z m 93,90.00006 c -1,-7.0001 -2,-15.0001 -5,-22.00006 0,14.99996 -6,29.00006 -18,39.00006 -11,11 -24,16 -39,16 -16,0 -30,-5 -41,-16 -11,-11 -17,-24.0001 -17,-40.00006 -3,7.99996 -4,14.99996 -6,23.00006 l 64,64 z m 6,71 c 0,-25 -2,-47 -5,-66 l -61,62 62,62.9999 c 3,-18 4,-36.9999 4,-58.9999 z m -193,-146.00006 c 0,-5 -2,-9 -5,-13 -4,-3 -8,-5 -13,-5 -3,0 -6,1 -9,3 l 24,24 c 2,-3 3,-6 3,-9 z m -29,-18 h -1 v 0 z m 313,301.99996 v 0 c 0,-5 -2,-9 -5,-13 -3,-3 -8,-5 -12,-5 -5,0 -9,2 -13,5 l 25,26 c 3,-4 5,-8 5,-13 z m 0,17 v -5 c -1,1 -2,2 -2,3 z m -317,-315.99996 -2,-3 v 6 c 0,-1 1,-2 2,-3 z m 27,27 -24,-25 c -3,4 -5,8 -5,13 0,4 2,9 5,12 3,4 8,5 12,5 5,0 9,-1 12,-5 z m 285,288.99996 h -1 v 0 z m -3,-2 -24,-25 c -2,3 -3,6 -3,10 0,5 2,9 5,12 3,4 8,5 13,5 v 0 c 3,0 6,-1 9,-2 z m -154,-156.9999 -62,-63 c -3,19 -4,39 -4,61 0,22 2,43.9999 5,63.9999 z m 66,66.9999 -63,-63.9999 -63,62.9999 c 1,8 3,15 5,22 1,-16 7,-29 18,-39 11,-9.9999 24,-15.9999 40,-15.9999 15,0 29,6 40,16.9999 11,11 17,25 17,40 3,-7 5,-15 6,-23 z m 47,48 -24,-24 c -13,33 -31,55 -55,66 30,-7 57,-21 79,-42 z m -226,-229.99996 -12,-12 c -4,4 -9,6 -15,6 -7,0 -13,-3 -17,-10 v 97.00006 c 6,-31 21,-58.00006 44,-81.00006 z m 246,273.99996 c -6,-4 -9,-10 -9,-17 0,-4 1,-9 3,-12 l -11,-13 c -23,22 -50,36 -80,42 z m -76,-68 c 0,-15 -6,-28 -16,-38 -11,-11 -24,-15.9999 -38,-15.9999 -15,0 -28,4.9999 -39,14.9999 -10,11 -16,24 -16,39 0,3 0,6 1,9 11,30 29,46 54,46 23,0 40,-14 52,-40 1,-5 2,-10 2,-15 z m -143,-178.99996 -25,-24 c -31,30.99996 -46,68.00006 -46,112.00006 0,43.9999 15,80.9999 46,111.9999 l 24,-24 c -10,-28 -15,-57.9999 -15,-88.9999 0,-31 5,-59 16,-87.00006 z m 54,243.99996 c -23,-11 -40,-32 -53,-64 l -23,23 c 22,21 47,34 76,41 z m -81,-41 c -23,-23 -38,-50 -44,-80.9999 v 95.9999 c 4,-6 10,-9 17,-9 6,0 11,2 15,6 z m 82,44 c -31,-6 -57,-20 -80,-42 l -12,13 c 3,3 4,8 4,12 0,7 -3,13 -9,17 z m -91,-17 c 0,-4 -1,-7 -3,-10 l -24,25 c 3,1 6,2 9,2 v 0 c 5,0 9,-1 13,-5 3,-3 5,-7 5,-12 z m -6,-13 c -3,-3 -7,-5 -12,-5 -4,0 -9,2 -12,6 -3,3 -5,7 -5,12 0,5 2,9 5,13 z m -23,30 c 0,0 0,0 -1,0 v 0 z m -4,-2 c 0,-1 -1,-2 -2,-3 v 5 z"
         id="path31"
         inkscape:connector-curvature="0"
         style="fill:#373435;fill-rule:nonzero" /></g></g></g></svg>